<svg width="25" height="25" viewBox="0 0 33 33" fill="none" xmlns="http://www.w3.org/2000/svg">
<path d="M15.125 11C15.125 10.2406 15.7406 9.625 16.5 9.625C17.2594 9.625 17.875 10.2406 17.875 11V15.125H22C22.7594 15.125 23.375 15.7406 23.375 16.5C23.375 17.2594 22.7594 17.875 22 17.875H17.875V22C17.875 22.7594 17.2594 23.375 16.5 23.375C15.7406 23.375 15.125 22.7594 15.125 22V17.875H11C10.2406 17.875 9.625 17.2594 9.625 16.5C9.625 15.7406 10.2406 15.125 11 15.125H15.125V11Z" fill="#8F7BA4"/>
<path fill-rule="evenodd" clip-rule="evenodd" d="M31.625 16.5C31.625 24.8533 24.8533 31.625 16.5 31.625C8.1467 31.625 1.375 24.8533 1.375 16.5C1.375 8.1467 8.1467 1.375 16.5 1.375C24.8533 1.375 31.625 8.1467 31.625 16.5ZM4.13439 16.5C4.13439 23.3294 9.67066 28.8657 16.5 28.8657C23.3294 28.8657 28.8657 23.3294 28.8657 16.5C28.8657 9.67066 23.3294 4.13439 16.5 4.13439C9.67066 4.13439 4.13439 9.67066 4.13439 16.5Z" fill="#8F7BA4"/>
</svg>
