<svg width="33" height="33" viewBox="0 0 33 33" fill="none" xmlns="http://www.w3.org/2000/svg">
<path d="M12.375 15.125C12.375 14.3656 12.9906 13.75 13.75 13.75C14.5094 13.75 15.125 14.3656 15.125 15.125V23.375C15.125 24.1344 14.5094 24.75 13.75 24.75C12.9906 24.75 12.375 24.1344 12.375 23.375V15.125Z" fill="#2F2F2F"/>
<path d="M19.25 13.75C18.4906 13.75 17.875 14.3656 17.875 15.125V23.375C17.875 24.1344 18.4906 24.75 19.25 24.75C20.0094 24.75 20.625 24.1344 20.625 23.375V15.125C20.625 14.3656 20.0094 13.75 19.25 13.75Z" fill="#2F2F2F"/>
<path fill-rule="evenodd" clip-rule="evenodd" d="M11.7303 1.375C7.59502 1.375 4.39549 4.99938 4.90841 9.10273L7.27202 28.0116C7.53005 30.0759 9.28484 31.625 11.3652 31.625H21.6348C23.7152 31.625 25.47 30.0759 25.7281 28.0116L28.0917 9.10273C28.6046 4.99938 25.4051 1.375 21.2698 1.375H11.7303ZM7.83955 6.875C8.40218 5.28756 9.91617 4.125 11.7303 4.125H21.2698C23.0839 4.125 24.5978 5.28756 25.1605 6.875H7.83955ZM7.7451 9.625L10.0008 27.6705C10.0868 28.3587 10.6717 28.875 11.3652 28.875H21.6348C22.3284 28.875 22.9133 28.3587 22.9992 27.6705L25.2549 9.625H7.7451Z" fill="#2F2F2F"/>
</svg>
