<svg width="25" height="25" viewBox="0 0 33 33" fill="none" xmlns="http://www.w3.org/2000/svg">
<path d="M23.375 16.5C23.375 15.7406 22.7594 15.125 22 15.125H11C10.2406 15.125 9.625 15.7406 9.625 16.5C9.625 17.2594 10.2406 17.875 11 17.875H22C22.7594 17.875 23.375 17.2594 23.375 16.5Z" fill="#E29287"/>
<path fill-rule="evenodd" clip-rule="evenodd" d="M16.5 31.625C24.8533 31.625 31.625 24.8533 31.625 16.5C31.625 8.1467 24.8533 1.375 16.5 1.375C8.1467 1.375 1.375 8.1467 1.375 16.5C1.375 24.8533 8.1467 31.625 16.5 31.625ZM16.5 28.8657C9.67066 28.8657 4.13439 23.3293 4.13439 16.5C4.13439 9.67066 9.67066 4.13439 16.5 4.13439C23.3293 4.13439 28.8657 9.67066 28.8657 16.5C28.8657 23.3293 23.3293 28.8657 16.5 28.8657Z" fill="#E29287"/>
</svg>
