<svg width="33" height="33" viewBox="0 0 33 33" fill="none" xmlns="http://www.w3.org/2000/svg">
<path fill-rule="evenodd" clip-rule="evenodd" d="M28.6656 2.58318C27.0546 0.972275 24.4428 0.972269 22.8319 2.58318L3.36523 22.0499C2.78938 22.6258 2.39686 23.3592 2.23715 24.1576L1.42993 28.1938C1.04509 30.118 2.74161 31.8146 4.66584 31.4298L8.70194 30.6225C9.50049 30.4629 10.2339 30.0703 10.8098 29.4944L30.2764 10.0277C31.8874 8.41681 31.8874 5.80502 30.2764 4.19409L28.6656 2.58318ZM24.7764 4.52772C25.3135 3.99076 26.184 3.99076 26.7211 4.52772L28.3319 6.13865C28.869 6.67561 28.869 7.54621 28.3319 8.08318L24.6584 11.7566L21.1031 8.20116L24.7764 4.52772ZM19.1584 10.1457L5.30977 23.9944C5.11782 24.1864 4.98699 24.4309 4.93375 24.6971L4.12653 28.7331L8.16262 27.9258C8.42881 27.8726 8.67328 27.7419 8.86523 27.5499L22.7139 13.7012L19.1584 10.1457Z" fill="#BBAACC"/>
</svg>
