<svg width="26" height="26" viewBox="0 0 26 26" fill="none" xmlns="http://www.w3.org/2000/svg">
<path d="M6.4776 1.94755C6.35433 1.36895 5.77586 0.984439 5.19417 1.10649C4.60862 1.22937 4.23354 1.80366 4.35641 2.38922C4.47706 2.96096 4.63373 3.52638 4.79915 4.08642C5.09542 5.08952 5.55137 6.44202 6.18824 7.81935C6.82145 9.18874 7.65608 10.6325 8.72875 11.7815C9.80417 12.9333 11.1846 13.8557 12.8908 14.0109C13.8908 14.1017 14.8095 14.6525 15.6651 15.5783C15.8586 15.7876 16.0453 16.0125 16.225 16.25H14.0833C13.485 16.25 13 16.735 13 17.3333C13 17.9317 13.485 18.4167 14.0833 18.4167H17.5442C17.6438 18.6156 17.7399 18.8167 17.8326 19.0189C18.0672 19.5303 18.2869 20.0528 18.4893 20.5833H13C12.4017 20.5833 11.9167 21.0683 11.9167 21.6667C11.9167 22.265 12.4017 22.75 13 22.75H19.2028C19.3229 23.183 19.43 23.6186 19.523 24.0552C19.6456 24.6406 20.2197 25.0162 20.8052 24.8938C21.3907 24.7713 21.7662 24.1972 21.6437 23.6116C21.245 21.7272 20.6034 19.8631 19.8021 18.1157C19.1667 16.73 18.33 15.2696 17.2563 14.1077C16.8825 13.7032 16.4714 13.3263 16.0225 13.0001C16.4714 12.674 16.8825 12.297 17.2563 11.8925C18.33 10.7307 19.1667 9.27019 19.8021 7.88448C20.6028 6.13827 21.2483 4.27288 21.6437 2.38868C21.7662 1.80306 21.3907 1.22899 20.8052 1.10646C20.2233 0.984737 19.645 1.3696 19.5222 1.94843C19.1502 3.67367 18.5671 5.37967 17.8326 6.98136C17.2466 8.25946 16.5231 9.49353 15.6651 10.4219C15.0192 11.1207 14.0931 11.9445 13.087 11.8531C12.085 11.762 11.1646 11.2156 10.3125 10.3028C10.15 10.1288 9.99245 9.94397 9.83977 9.75H11.9167C12.515 9.75 13 9.26498 13 8.66667C13 8.06836 12.515 7.58333 11.9167 7.58333H8.48209C8.36859 7.36129 8.25951 7.13635 8.15485 6.91C7.92117 6.40463 7.71315 5.90024 7.52993 5.41667H13C13.5983 5.41667 14.0833 4.93164 14.0833 4.33333C14.0833 3.73503 13.5983 3.25 13 3.25H6.81203C6.68783 2.81939 6.57234 2.38547 6.4776 1.94755Z" fill="white"/>
<path d="M4.35642 23.6109C4.23355 24.1965 4.60864 24.7707 5.19419 24.8937C5.77976 25.0165 6.35445 24.6282 6.47858 24.048C6.67005 23.1723 6.9277 22.3085 7.21548 21.4602C7.73039 19.9424 8.50448 18.0978 9.55727 16.6269C9.9055 16.1404 9.79336 15.4636 9.30683 15.1154C8.82029 14.7672 8.14359 14.8794 7.79537 15.3659C6.56306 17.0876 5.70731 19.1617 5.16367 20.7641C4.84751 21.6961 4.56024 22.647 4.35642 23.6109Z" fill="white"/>
</svg>
