<svg width="171" height="30" viewBox="0 0 171 30" fill="none" xmlns="http://www.w3.org/2000/svg">
<path d="M0.971875 29V1.16H11.3319C13.3585 1.16 15.2252 1.66666 16.9319 2.68C18.6652 3.69333 20.0385 5.06667 21.0519 6.8C22.0652 8.50667 22.5719 10.3733 22.5719 12.4V17.76C22.5719 19.7867 22.0652 21.6667 21.0519 23.4C20.0385 25.1067 18.6652 26.4667 16.9319 27.48C15.2252 28.4933 13.3585 29 11.3319 29H0.971875ZM40.5813 0.559999C42.6613 0.559999 44.5813 1.08 46.3412 2.12C48.1013 3.13333 49.4879 4.52 50.5013 6.28C51.5413 8.04 52.0613 9.96 52.0613 12.04V18.12C52.0613 20.2 51.5413 22.12 50.5013 23.88C49.4879 25.64 48.1013 27.04 46.3412 28.08C44.5813 29.0933 42.6613 29.6 40.5813 29.6C38.5013 29.6 36.5813 29.0933 34.8213 28.08C33.0613 27.04 31.6613 25.64 30.6213 23.88C29.6079 22.12 29.1013 20.2 29.1013 18.12V12.04C29.1013 9.96 29.6079 8.04 30.6213 6.28C31.6613 4.52 33.0613 3.13333 34.8213 2.12C36.5813 1.08 38.5013 0.559999 40.5813 0.559999ZM30.5813 18.12C30.5813 19.9333 31.0213 21.6133 31.9013 23.16C32.8079 24.68 34.0213 25.8933 35.5413 26.8C37.0879 27.68 38.7679 28.12 40.5813 28.12C42.3946 28.12 44.0613 27.68 45.5813 26.8C47.1279 25.8933 48.3413 24.68 49.2213 23.16C50.1279 21.6133 50.5813 19.9333 50.5813 18.12V12.04C50.5813 10.2267 50.1279 8.56 49.2213 7.04C48.3413 5.49333 47.1279 4.28 45.5813 3.4C44.0613 2.49333 42.3946 2.04 40.5813 2.04C38.7679 2.04 37.0879 2.49333 35.5413 3.4C34.0213 4.28 32.8079 5.49333 31.9013 7.04C31.0213 8.56 30.5813 10.2267 30.5813 12.04V18.12ZM75.7906 1.96C77.044 2.6 78.004 3.48 78.6706 4.6C79.364 5.72 79.7106 6.97333 79.7106 8.36C79.7106 9.66667 79.364 10.88 78.6706 12C78.004 13.0933 77.0706 13.96 75.8706 14.6C77.284 15.08 78.4573 15.96 79.3906 17.24C80.324 18.52 80.7906 19.9333 80.7906 21.48C80.7906 22.8667 80.444 24.1467 79.7506 25.32C79.0573 26.4933 78.1373 27.4 76.9906 28.04C76.404 28.36 75.7506 28.6 75.0306 28.76C74.3106 28.92 73.3506 29 72.1506 29H60.4706V1.16H71.5906C73.3506 1.16 74.7506 1.42666 75.7906 1.96ZM75.1506 13.44C76.1106 12.96 76.8706 12.2667 77.4306 11.36C77.9906 10.4533 78.2706 9.45333 78.2706 8.36C78.2706 7.13333 77.9506 6.06667 77.3106 5.16C76.6706 4.22667 75.8573 3.54667 74.8706 3.12C74.124 2.8 72.8706 2.64 71.1106 2.64H61.9106V14.08H71.8306C73.2173 14.08 74.324 13.8667 75.1506 13.44ZM76.1106 26.92C77.0973 26.4133 77.884 25.68 78.4706 24.72C79.0573 23.7333 79.3506 22.6667 79.3506 21.52C79.3506 20.32 79.044 19.24 78.4306 18.28C77.8173 17.2933 76.9906 16.56 75.9506 16.08C75.1506 15.7067 74.0706 15.52 72.7106 15.52H61.9106V27.56H72.1906C73.204 27.56 74.004 27.5067 74.5906 27.4C75.1773 27.2933 75.684 27.1333 76.1106 26.92ZM96.16 25.96C96.16 24.9733 96.5067 24.1333 97.2 23.44C97.92 22.72 98.7867 22.36 99.8 22.36C100.813 22.36 101.667 22.72 102.36 23.44C103.08 24.1333 103.44 24.9733 103.44 25.96C103.44 26.9467 103.08 27.8 102.36 28.52C101.667 29.24 100.813 29.6 99.8 29.6C98.8133 29.6 97.96 29.24 97.24 28.52C96.52 27.8 96.16 26.9467 96.16 25.96ZM135.449 2.08C137.049 2.82667 138.303 3.93333 139.209 5.4C140.143 6.86667 140.609 8.49333 140.609 10.28C140.609 12.36 139.969 14.2267 138.689 15.88C137.436 17.5067 135.823 18.5867 133.849 19.12L140.929 29H139.169L132.329 19.4L131.049 19.44H121.009V29H119.529V1.16H130.129C131.303 1.16 132.303 1.24 133.129 1.4C133.983 1.53333 134.756 1.76 135.449 2.08ZM131.449 17.96C132.836 17.96 134.116 17.6133 135.289 16.92C136.463 16.2267 137.396 15.2933 138.089 14.12C138.783 12.9467 139.129 11.6667 139.129 10.28C139.129 8.73333 138.716 7.33333 137.889 6.08C137.089 4.82667 135.969 3.89333 134.529 3.28C133.489 2.85333 132.023 2.64 130.129 2.64H121.009V17.96H131.449ZM147.779 1.16H149.259V18.36C149.259 20.12 149.699 21.7467 150.579 23.24C151.459 24.7333 152.645 25.92 154.139 26.8C155.632 27.68 157.259 28.12 159.019 28.12C160.779 28.12 162.405 27.68 163.899 26.8C165.392 25.92 166.579 24.7333 167.459 23.24C168.339 21.7467 168.779 20.12 168.779 18.36V1.16H170.259V18.36C170.259 20.3867 169.752 22.2667 168.739 24C167.725 25.7067 166.352 27.0667 164.619 28.08C162.912 29.0933 161.045 29.6 159.019 29.6C156.992 29.6 155.112 29.0933 153.379 28.08C151.672 27.0667 150.312 25.7067 149.299 24C148.285 22.2667 147.779 20.3867 147.779 18.36V1.16Z" fill="#8F7BA4"/>
</svg>
